<svg version="1.1" xmlns="http://www.w3.org/2000/svg" viewBox="0 0 725.5 492" width="1451" height="984" filter="invert(93%) hue-rotate(180deg)">
  <!-- svg-source:excalidraw -->
  
  <defs>
    <style>
      @font-face {
        font-family: "Virgil";
        src: url("https://excalidraw.com/Virgil.woff2");
      }
      @font-face {
        font-family: "Cascadia";
        src: url("https://excalidraw.com/Cascadia.woff2");
      }
    </style>
  </defs>
  <rect x="0" y="0" width="725.5" height="492" fill="#ffffff"></rect><g transform="translate(100.5 10) rotate(0 200 13)"><text x="0" y="18" font-family="Virgil, Segoe UI Emoji" font-size="20px" fill="#000000" text-anchor="start" style="white-space: pre;" direction="ltr">Are you working with multiple data files?</text></g><g stroke-linecap="round"><g transform="translate(283.5 61) rotate(0 -50.48373583508652 58.55190578254869)"><path d="M-0.4 0.04 C-17.51 19.71, -85.15 98.66, -102.09 118.09 M1.6 -0.99 C-15.65 18.37, -85.25 96.75, -102.57 116.54" stroke="#000000" stroke-width="1" fill="none"></path></g><g transform="translate(283.5 61) rotate(0 -50.48373583508652 58.55190578254869)"><path d="M-91.54 90.13 C-93.6 99.92, -99.84 109.97, -102.7 114.56 M-92.17 88.99 C-94.82 95.43, -96.6 102.35, -101.99 116.78" stroke="#000000" stroke-width="1" fill="none"></path></g><g transform="translate(283.5 61) rotate(0 -50.48373583508652 58.55190578254869)"><path d="M-76.16 103.71 C-83.59 108.71, -95.2 114.02, -102.7 114.56 M-76.79 102.57 C-83.55 105.5, -89.34 108.89, -101.99 116.78" stroke="#000000" stroke-width="1" fill="none"></path></g></g><g stroke-linecap="round"><g transform="translate(285 62.5) rotate(0 103.50949222010559 61.670499939844035)"><path d="M0.52 -0.95 C35.26 19.86, 173.16 103.3, 207.69 124.29 M-0.67 1.17 C34.04 21.64, 172.44 101.99, 207.1 122.32" stroke="#000000" stroke-width="1" fill="none"></path></g><g transform="translate(285 62.5) rotate(0 103.50949222010559 61.670499939844035)"><path d="M176 118.13 C185.04 119.31, 193.15 118.67, 205.67 121.83 M177.56 117.54 C186.79 118.63, 197.8 121.3, 208.02 121.82" stroke="#000000" stroke-width="1" fill="none"></path></g><g transform="translate(285 62.5) rotate(0 103.50949222010559 61.670499939844035)"><path d="M186.34 100.4 C192.85 105.83, 198.5 109.39, 205.67 121.83 M187.9 99.81 C193.57 106.79, 201.13 115.39, 208.02 121.82" stroke="#000000" stroke-width="1" fill="none"></path></g></g><g transform="translate(378.5 82) rotate(0 16.5 13)"><text x="0" y="18" font-family="Virgil, Segoe UI Emoji" font-size="20px" fill="#000000" text-anchor="start" style="white-space: pre;" direction="ltr">yes</text></g><g transform="translate(10 204) rotate(0 167.5 38.5)"><text x="167.5" y="17.666666666666668" font-family="Virgil, Segoe UI Emoji" font-size="20px" fill="#000000" text-anchor="middle" style="white-space: pre;" direction="ltr">Is it a large file?</text><text x="167.5" y="43.333333333333336" font-family="Virgil, Segoe UI Emoji" font-size="20px" fill="#000000" text-anchor="middle" style="white-space: pre;" direction="ltr">(here a file is large if it's</text><text x="167.5" y="69" font-family="Virgil, Segoe UI Emoji" font-size="20px" fill="#000000" text-anchor="middle" style="white-space: pre;" direction="ltr">about 1/3 of your available RAM)</text></g><g stroke-linecap="round"><g transform="translate(140.5 308) rotate(0 0.09472470641537711 63.6992574446183)"><path d="M0.47 1.1 C0.76 22.25, 1.07 105.99, 0.85 126.77 M-0.74 0.63 C-0.47 21.46, -0.04 103.99, 0.35 125.05" stroke="#000000" stroke-width="1" fill="none"></path></g><g transform="translate(140.5 308) rotate(0 0.09472470641537711 63.6992574446183)"><path d="M-8.39 98.39 C-6.54 101.98, -5.78 108.99, 0.13 126.8 M-10.38 97.71 C-7.65 106.44, -3.37 115.15, 0.18 125.09" stroke="#000000" stroke-width="1" fill="none"></path></g><g transform="translate(140.5 308) rotate(0 0.09472470641537711 63.6992574446183)"><path d="M12.13 98.16 C9.25 101.88, 5.28 108.95, 0.13 126.8 M10.14 97.49 C6.54 106.12, 4.49 114.9, 0.18 125.09" stroke="#000000" stroke-width="1" fill="none"></path></g></g><g transform="translate(111.5 344) rotate(0 11 13)"><text x="11" y="18" font-family="Virgil, Segoe UI Emoji" font-size="20px" fill="#000000" text-anchor="middle" style="white-space: pre;" direction="ltr">no</text></g><g stroke-linecap="round"><g transform="translate(338.5 239) rotate(0 66.60018685359512 -0.9224809605989321)"><path d="M1.02 0.86 C23.26 0.67, 111.25 -0.45, 133.11 -0.72 M0.09 0.26 C22.21 -0.34, 109.8 -2.76, 132.22 -2.7" stroke="#000000" stroke-width="1" fill="none"></path></g><g transform="translate(338.5 239) rotate(0 66.60018685359512 -0.9224809605989321)"><path d="M105.61 8.15 C112.24 3.45, 119.75 2.77, 132.05 -3.96 M103.72 8.02 C114.47 4.96, 123.44 0.6, 132.34 -1.72" stroke="#000000" stroke-width="1" fill="none"></path></g><g transform="translate(338.5 239) rotate(0 66.60018685359512 -0.9224809605989321)"><path d="M105.31 -12.36 C112.09 -11.48, 119.68 -6.58, 132.05 -3.96 M103.42 -12.5 C114.09 -8.49, 123.17 -5.78, 132.34 -1.72" stroke="#000000" stroke-width="1" fill="none"></path></g></g><g transform="translate(491.5 206) rotate(0 112 13)"><text x="112" y="18" font-family="Virgil, Segoe UI Emoji" font-size="20px" fill="#000000" text-anchor="middle" style="white-space: pre;" direction="ltr">Use the Dataset API</text></g><g transform="translate(28.5 456) rotate(0 115 13)"><text x="115" y="18" font-family="Virgil, Segoe UI Emoji" font-size="20px" fill="#000000" text-anchor="middle" style="white-space: pre;" direction="ltr">Use the Single file API</text></g><g transform="translate(384 205) rotate(0 16.5 13)"><text x="0" y="18" font-family="Virgil, Segoe UI Emoji" font-size="20px" fill="#000000" text-anchor="start" style="white-space: pre;" direction="ltr">yes</text></g><g transform="translate(202.5 87) rotate(0 11 13)"><text x="11" y="18" font-family="Virgil, Segoe UI Emoji" font-size="20px" fill="#000000" text-anchor="middle" style="white-space: pre;" direction="ltr">no</text></g></svg>